<svg width="68" height="68" viewBox="0 0 68 68" fill="none" xmlns="http://www.w3.org/2000/svg">
<circle cx="34" cy="34" r="33" stroke="#010101" stroke-width="2"/>
<path d="M22.8652 28.7822H22.7884C21.8032 28.7822 21 29.588 21 30.5706V38.3569C21 39.3434 21.8032 40.1465 22.7884 40.1465H22.8665C23.8517 40.1465 24.6549 39.3407 24.6549 38.3569V30.5705C24.6536 29.588 23.8491 28.7822 22.8652 28.7822Z" fill="#010002"/>
<path d="M25.5107 41.3623C25.5107 42.2667 26.2498 43.0033 27.1542 43.0033H28.9106V47.2091C28.9106 48.1968 29.7164 49 30.699 49H30.7758C31.7623 49 32.5668 48.1955 32.5668 47.2091V43.0033H35.0213V47.2091C35.0213 48.1968 35.8297 49 36.8122 49H36.8879C37.8742 49 38.6775 48.1955 38.6775 47.2091V43.0033H40.4351C41.3382 43.0033 42.0774 42.2667 42.0774 41.3623V29.0679H25.5107V41.3623Z" fill="#010002"/>
<path d="M37.9203 21.6121L39.3154 19.4586C39.4051 19.3228 39.3654 19.1371 39.2283 19.0487C39.0925 18.959 38.9068 18.9962 38.8183 19.1358L37.372 21.3636C36.287 20.9191 35.0751 20.6693 33.7953 20.6693C32.5142 20.6693 31.3049 20.9191 30.2173 21.3636L28.7735 19.1358C28.6852 18.9962 28.4981 18.959 28.361 19.0487C28.224 19.1371 28.1842 19.3228 28.2739 19.4586L29.6703 21.6121C27.1529 22.8458 25.4555 25.1709 25.4555 27.8381C25.4555 28.002 25.4658 28.1635 25.4799 28.3236H42.1119C42.126 28.1635 42.135 28.002 42.135 27.8381C42.135 25.1709 40.4363 22.8458 37.9203 21.6121ZM29.9393 25.4681C29.4973 25.4681 29.1386 25.1119 29.1386 24.6687C29.1386 24.2255 29.4973 23.8706 29.9393 23.8706C30.3838 23.8706 30.74 24.2254 30.74 24.6687C30.74 25.112 30.3813 25.4681 29.9393 25.4681ZM37.65 25.4681C37.2081 25.4681 36.8494 25.1119 36.8494 24.6687C36.8494 24.2255 37.2081 23.8706 37.65 23.8706C38.0933 23.8706 38.4494 24.2254 38.4494 24.6687C38.4494 25.1119 38.0933 25.4681 37.65 25.4681Z" fill="#010002"/>
<path d="M44.7996 28.7822H44.7253C43.7402 28.7822 42.9344 29.588 42.9344 30.5706V38.3569C42.9344 39.3434 43.7415 40.1465 44.7253 40.1465H44.8009C45.7873 40.1465 46.5893 39.3407 46.5893 38.3569V30.5705C46.5893 29.588 45.7848 28.7822 44.7996 28.7822Z" fill="#010002"/>
</svg>
