<svg width="68" height="68" viewBox="0 0 68 68" fill="none" xmlns="http://www.w3.org/2000/svg">
<circle cx="34" cy="34" r="33" stroke="#010101" stroke-width="2"/>
<path d="M42.4024 32.9402C42.3645 29.1409 45.5008 27.3188 45.6409 27.2283C43.8787 24.6496 41.1336 24.2963 40.1554 24.2555C37.8192 24.0189 35.5969 25.6309 34.4112 25.6309C33.2286 25.6309 31.399 24.2905 29.4615 24.3257C26.9151 24.3635 24.5672 25.8063 23.256 28.0868C20.6104 32.6776 22.5785 39.4786 25.1571 43.2018C26.4171 45.0243 27.9196 47.0713 29.8922 46.9981C31.7919 46.9223 32.5103 45.7689 34.807 45.7689C37.1036 45.7689 37.7493 46.9981 39.7596 46.9604C41.8038 46.9224 43.0989 45.103 44.3502 43.275C45.7971 41.1607 46.3929 39.1137 46.4281 39.0086C46.3826 38.9879 42.4419 37.4782 42.4024 32.9402ZM38.6249 21.7907C39.672 20.5204 40.3787 18.7581 40.1859 17C38.6777 17.0614 36.8497 18.0046 35.7676 19.272C34.7967 20.3963 33.9468 22.1907 34.1746 23.9137C35.8582 24.045 37.5768 23.0581 38.6249 21.7907Z" fill="black"/>
</svg>
